<svg id="svg" version="1.1"
	xmlns="http://www.w3.org/2000/svg"
	xmlns:xlink="http://www.w3.org/1999/xlink" width="512" height="512" viewBox="0, 0, 400,507.29927007299267">
	<g id="svgg">
		<path id="path0" d="M232.154 67.904 C 222.386 68.826,214.455 72.521,207.545 79.369 C 204.351 82.534,199.193 88.668,199.360 89.101 C 199.509 89.484,214.919 101.825,215.249 101.825 C 215.414 101.825,216.801 100.388,218.331 98.631 C 224.798 91.208,229.845 88.321,236.352 88.321 C 244.447 88.321,249.266 92.720,249.574 100.389 C 249.971 110.259,247.323 113.334,217.223 137.956 L 197.815 153.832 197.813 162.865 L 197.810 171.898 235.949 171.898 L 274.088 171.898 274.088 162.044 L 274.088 152.190 251.965 152.190 L 229.843 152.190 236.728 146.874 C 268.427 122.402,272.993 116.475,272.993 99.791 C 272.993 78.255,256.762 65.582,232.154 67.904 " stroke="none" fill="#a4cc3c" fill-rule="evenodd"></path>
		<path id="path1" d="M80.839 0.558 C 43.145 5.470,13.706 31.416,2.691 69.434 C 2.516 70.037,3.648 70.073,22.877 70.072 L 43.248 70.071 44.343 67.974 C 52.190 52.941,66.556 42.311,83.313 39.141 C 88.601 38.140,311.481 38.156,316.788 39.158 C 340.752 43.680,358.913 63.340,361.310 87.355 C 361.602 90.274,361.683 122.865,361.597 202.737 L 361.478 314.051 360.645 317.701 C 355.651 339.590,340.136 355.236,318.248 360.454 C 315.681 361.066,311.430 361.113,249.818 361.215 L 184.124 361.324 157.575 387.866 L 131.027 414.409 130.933 387.953 L 130.839 361.496 107.664 361.288 C 82.300 361.061,82.963 361.114,75.742 358.713 C 62.465 354.299,50.165 343.716,44.300 331.661 L 43.279 329.562 22.910 329.562 L 2.541 329.562 2.775 330.566 C 11.608 368.344,47.801 397.856,87.784 399.882 L 92.336 400.113 92.336 453.706 C 92.336 483.182,92.459 507.299,92.610 507.299 C 92.761 507.299,117.021 483.162,146.522 453.660 L 200.160 400.021 258.566 399.906 C 322.060 399.782,318.664 399.886,327.737 397.784 C 362.936 389.630,390.183 362.304,397.947 327.372 C 400.141 317.501,400.023 325.317,399.899 197.810 L 399.786 81.204 399.001 77.190 C 390.870 35.654,359.583 5.730,318.868 0.548 C 312.865 -0.216,86.705 -0.207,80.839 0.558 " stroke="none" fill="#048ccc" fill-rule="evenodd"></path>
		<path id="path2" d="M26.808 27.099 L 25.365 28.650 26.916 27.207 C 28.359 25.865,28.635 25.547,28.359 25.547 C 28.299 25.547,27.601 26.245,26.808 27.099 M372.810 27.007 C 373.594 27.810,374.318 28.467,374.418 28.467 C 374.519 28.467,373.959 27.810,373.175 27.007 C 372.391 26.204,371.668 25.547,371.567 25.547 C 371.467 25.547,372.026 26.204,372.810 27.007 M0.000 199.798 L 0.000 310.219 19.161 310.219 L 38.321 310.219 38.321 271.898 L 38.321 233.577 62.720 233.577 L 87.119 233.577 114.089 271.879 L 141.058 310.180 164.142 310.200 C 176.839 310.210,187.226 310.145,187.226 310.054 C 187.226 309.963,173.911 291.225,157.636 268.415 C 141.361 245.605,128.099 226.904,128.165 226.856 C 128.231 226.808,130.172 226.151,132.480 225.396 C 165.604 214.552,183.497 186.503,179.910 151.042 C 176.757 119.880,156.021 98.579,122.263 91.824 C 111.120 89.595,112.808 89.652,53.923 89.508 L 0.000 89.376 0.000 199.798 M107.482 126.026 C 129.775 130.005,140.329 141.475,140.291 161.679 C 140.254 181.255,128.787 193.772,107.121 197.886 C 103.276 198.617,101.698 198.656,70.712 198.802 L 38.321 198.954 38.321 162.049 L 38.321 125.143 71.259 125.291 C 99.446 125.418,104.671 125.524,107.482 126.026 " stroke="none" fill="#04bceb" fill-rule="evenodd"></path>
		<path id="path3" d="" stroke="none" fill="#a8ac5c" fill-rule="evenodd"></path>
		<path id="path4" d="" stroke="none" fill="#58acb8" fill-rule="evenodd"></path>
		<path id="path5" d="" stroke="none" fill="#04acd0" fill-rule="evenodd"></path>
	</g>
</svg>